<svg width="186" height="102" viewBox="0 0 186 102" fill="none" xmlns="http://www.w3.org/2000/svg">
<path d="M8.31555 102C3.68987 102 -0.0966435 98.2433 0.292654 93.6341C1.86113 75.0633 8.62873 57.2069 19.9349 42.0459C32.9304 24.6194 51.2549 11.6485 72.282 4.99223C93.3092 -1.66408 115.96 -1.66408 136.987 4.99225C155.265 10.7785 171.502 21.3364 183.971 35.4448C187.059 38.9396 186.197 44.2665 182.39 46.9612C178.714 49.563 173.663 48.727 170.644 45.3856C160.256 33.8891 146.857 25.2766 131.81 20.5135C114.148 14.9222 95.1212 14.9222 77.4584 20.5135C59.7956 26.1048 44.403 37.0003 33.4868 51.6386C24.2607 64.0103 18.6325 78.5187 17.1108 93.6383C16.6476 98.2407 12.9412 102 8.31555 102Z" fill="#FFCD71"/>
</svg>
