<svg width="209" height="102" viewBox="0 0 209 102" fill="none" xmlns="http://www.w3.org/2000/svg">
<path d="M8.31555 102C3.68987 102 -0.0966179 98.2435 0.292719 93.6343C1.18207 83.1055 3.74648 72.7578 7.90939 62.9663C13.1708 50.5911 20.8825 39.3467 30.6043 29.8751C40.326 20.4035 51.8675 12.8903 64.5696 7.76428C77.2717 2.6383 90.8857 -1.75652e-06 104.634 0C118.383 1.75652e-06 131.997 2.63831 144.699 7.76429C157.401 12.8903 168.943 20.4035 178.664 29.8751C188.386 39.3467 196.098 50.5911 201.359 62.9663C205.522 72.7578 208.087 83.1055 208.976 93.6343C209.365 98.2436 205.579 102 200.953 102C196.327 102 192.621 98.2409 192.158 93.6385C191.314 85.2548 189.204 77.0226 185.883 69.2117C181.464 58.8165 174.986 49.3712 166.82 41.4151C158.653 33.459 148.959 27.1478 138.289 22.842C127.619 18.5362 116.183 16.32 104.634 16.32C93.0855 16.32 81.6497 18.5362 70.9799 22.842C60.3102 27.1478 50.6154 33.459 42.4491 41.4151C34.2828 49.3712 27.805 58.8165 23.3854 69.2117C20.0646 77.0225 17.9547 85.2547 17.1109 93.6384C16.6477 98.2409 12.9412 102 8.31555 102Z" fill="#FFF7E8"/>
</svg>
