<svg width="16" height="17" viewBox="0 0 16 17" fill="none" xmlns="http://www.w3.org/2000/svg">
<path d="M7.33334 8.61163C7.33334 8.78844 7.40358 8.95801 7.52861 9.08304C7.65363 9.20806 7.8232 9.2783 8.00001 9.2783C8.17682 9.2783 8.34639 9.20806 8.47141 9.08304C8.59644 8.95801 8.66668 8.78844 8.66668 8.61163C8.66668 8.43482 8.59644 8.26525 8.47141 8.14023C8.34639 8.0152 8.17682 7.94496 8.00001 7.94496C7.8232 7.94496 7.65363 8.0152 7.52861 8.14023C7.40358 8.26525 7.33334 8.43482 7.33334 8.61163Z" fill="#131313"/>
<path d="M7.33334 13.2783C7.33334 13.4551 7.40358 13.6247 7.52861 13.7497C7.65363 13.8747 7.8232 13.945 8.00001 13.945C8.17682 13.945 8.34639 13.8747 8.47141 13.7497C8.59644 13.6247 8.66668 13.4551 8.66668 13.2783C8.66668 13.1015 8.59644 12.9319 8.47141 12.8069C8.34639 12.6819 8.17682 12.6116 8.00001 12.6116C7.8232 12.6116 7.65363 12.6819 7.52861 12.8069C7.40358 12.9319 7.33334 13.1015 7.33334 13.2783Z" fill="#131313"/>
<path d="M7.33334 3.94496C7.33334 4.12178 7.40358 4.29134 7.52861 4.41637C7.65363 4.54139 7.8232 4.61163 8.00001 4.61163C8.17682 4.61163 8.34639 4.54139 8.47141 4.41637C8.59644 4.29134 8.66668 4.12178 8.66668 3.94496C8.66668 3.76815 8.59644 3.59858 8.47141 3.47356C8.34639 3.34854 8.17682 3.2783 8.00001 3.2783C7.8232 3.2783 7.65363 3.34854 7.52861 3.47356C7.40358 3.59858 7.33334 3.76815 7.33334 3.94496Z" fill="#131313"/>
<path d="M7.33334 8.61163C7.33334 8.78844 7.40358 8.95801 7.52861 9.08304C7.65363 9.20806 7.8232 9.2783 8.00001 9.2783C8.17682 9.2783 8.34639 9.20806 8.47141 9.08304C8.59644 8.95801 8.66668 8.78844 8.66668 8.61163C8.66668 8.43482 8.59644 8.26525 8.47141 8.14023C8.34639 8.0152 8.17682 7.94496 8.00001 7.94496C7.8232 7.94496 7.65363 8.0152 7.52861 8.14023C7.40358 8.26525 7.33334 8.43482 7.33334 8.61163Z" stroke="#734A00" stroke-width="1.25" stroke-linecap="round" stroke-linejoin="round"/>
<path d="M7.33334 13.2783C7.33334 13.4551 7.40358 13.6247 7.52861 13.7497C7.65363 13.8747 7.8232 13.945 8.00001 13.945C8.17682 13.945 8.34639 13.8747 8.47141 13.7497C8.59644 13.6247 8.66668 13.4551 8.66668 13.2783C8.66668 13.1015 8.59644 12.9319 8.47141 12.8069C8.34639 12.6819 8.17682 12.6116 8.00001 12.6116C7.8232 12.6116 7.65363 12.6819 7.52861 12.8069C7.40358 12.9319 7.33334 13.1015 7.33334 13.2783Z" stroke="#734A00" stroke-width="1.25" stroke-linecap="round" stroke-linejoin="round"/>
<path d="M7.33334 3.94496C7.33334 4.12178 7.40358 4.29134 7.52861 4.41637C7.65363 4.54139 7.8232 4.61163 8.00001 4.61163C8.17682 4.61163 8.34639 4.54139 8.47141 4.41637C8.59644 4.29134 8.66668 4.12178 8.66668 3.94496C8.66668 3.76815 8.59644 3.59858 8.47141 3.47356C8.34639 3.34854 8.17682 3.2783 8.00001 3.2783C7.8232 3.2783 7.65363 3.34854 7.52861 3.47356C7.40358 3.59858 7.33334 3.76815 7.33334 3.94496Z" stroke="#734A00" stroke-width="1.25" stroke-linecap="round" stroke-linejoin="round"/>
</svg>
